<?xml version="1.0" encoding="utf-8"?>
<!-- Generator: Adobe Illustrator 25.4.1, SVG Export Plug-In . SVG Version: 6.00 Build 0)  -->
<svg version="1.1" id="Layer_1" xmlns="http://www.w3.org/2000/svg" xmlns:xlink="http://www.w3.org/1999/xlink" x="0px" y="0px"
	 viewBox="0 0 500 500" style="enable-background:new 0 0 500 500;" xml:space="preserve">
<style type="text/css">
	.st0{fill:#FEFEFE;}
	.st1{fill:#B7B7B7;}
	.st2{fill:#123546;}
	.st3{fill:#FDFDFD;}
</style>
<g>
	<path class="st0" d="M297.21,71.05c51.61,0,103.22,0.01,154.82-0.05c1.64,0,1.96,0.32,1.96,1.96c-0.05,117.73-0.05,235.46,0,353.2
		c0,1.64-0.32,1.96-1.96,1.96c-134.69-0.05-269.38-0.05-404.07,0c-1.64,0-1.96-0.32-1.96-1.96c0.05-117.73,0.05-235.46,0-353.2
		c0-1.64,0.32-1.96,1.96-1.96c51.45,0.06,102.9,0.05,154.34,0.05c0.38,49.98-0.23,99.95,0.37,149.93c0.38,32.1,0.07,64.2,0.07,96.31
		c0,3.61-0.01,3.59,3.33,2.41c29.37-10.43,58.73-20.88,88.12-31.23c2.24-0.79,3.04-1.77,3.04-4.21
		c-0.07-70.19-0.06-140.39-0.06-210.58C297.18,72.8,297.2,71.92,297.21,71.05z M190.77,203.07c0-26.83,0-53.66,0-80.5
		c0-3.16,0-3.16-3.27-3.16c-29.47,0-58.95,0-88.42,0c-3.15,0-3.16,0-3.15,3.28c0.2,53.01-0.36,106.03,0.38,159.04
		c0.15,11.02,0,22.04,0.04,33.06c0.01,1.9-0.87,4.6,0.37,5.5c1.46,1.07,3.63-0.77,5.46-1.44c28.7-10.41,57.38-20.84,86.09-31.23
		c1.8-0.65,2.56-1.49,2.55-3.58C190.74,257.05,190.77,230.06,190.77,203.07z M403.63,203.27c0-27-0.03-53.99,0.05-80.99
		c0.01-2.29-0.54-2.93-2.88-2.92c-29.72,0.08-59.43,0.08-89.15,0c-2.32-0.01-2.93,0.64-2.9,2.93c0.28,23.23,0.1,46.46,0.31,69.69
		c0.38,42.09,0.13,84.18,0.14,126.27c0,2.79,0.07,2.83,2.35,1.99c29.81-10.87,59.61-21.76,89.45-32.53
		c2.14-0.77,2.68-1.77,2.67-3.93C403.6,256.94,403.63,230.1,403.63,203.27z M149.62,377.71c0.19-0.06,0.37-0.12,0.56-0.18
		c4.29,6.51,8.65,12.98,12.85,19.55c3.61,5.65,3.53,5.64,10.26,5.65c1.84,0,2.27-0.58,2.25-2.33c-0.08-9.58-0.04-19.15-0.04-28.73
		c0-5.99,0-5.91-6.03-5.94c-1.92-0.01-2.21,0.7-2.19,2.38c0.08,6.86,0.04,13.73,0.01,20.59c0,0.54,0.39,1.25-0.48,1.72
		c-4.1-6.3-8.49-12.4-12.16-18.91c-2.59-4.6-5.73-6.68-11.01-5.82c-1.72,0.28-2.27,0.58-2.25,2.35c0.08,9.82,0.04,19.63,0.04,29.45
		c0,5.2,0.01,5.04,5.27,5.27c2.56,0.11,3.01-0.77,2.97-3.09C149.53,392.34,149.62,385.02,149.62,377.71z M435.26,390.24
		c-0.14,0.05-0.29,0.11-0.43,0.16c-0.49-0.7-0.99-1.39-1.46-2.1c-3.65-5.61-7.66-11.03-10.83-16.91c-2.51-4.66-5.73-6.37-10.84-5.71
		c-1.86,0.24-2.38,0.64-2.36,2.48c0.08,9.5,0.04,18.99,0.04,28.49c0,6.29,0,6.24,6.36,6.06c1.53-0.04,1.85-0.62,1.85-1.99
		c-0.05-6.94-0.02-13.89-0.02-20.83c0-0.75,0-1.5,0-2.24c0.78,0.02,0.96,0.41,1.16,0.72c4.12,6.26,8.3,12.48,12.31,18.81
		c3.48,5.47,3.4,5.42,9.84,5.55c2.19,0.04,2.63-0.67,2.61-2.71c-0.1-9.5-0.05-18.99-0.05-28.49c0-5.79,0-5.71-5.68-5.81
		c-1.96-0.03-2.59,0.47-2.55,2.5C435.34,375.57,435.26,382.91,435.26,390.24z M396.95,384.25c0.52-9.48-4.62-15.52-10.56-17.88
		c-5.49-2.18-11.25-2.23-16.9-0.72c-14.23,3.8-15.11,20.44-10.4,29.21c5.85,10.9,22.72,10.48,29.78,5.93
		C394.82,396.95,397.26,391.23,396.95,384.25z M189.88,384.13c0,5.5,0.05,11.01-0.03,16.51c-0.02,1.53,0.4,2.09,2.01,2.07
		c6.06-0.08,12.13,0.04,18.19-0.06c3.97-0.07,7.55-1.44,10.28-4.39c4.9-5.31,6.03-11.69,5.03-18.65
		c-1.21-8.43-7.13-13.76-15.59-13.82c-5.82-0.04-11.65,0.06-17.47-0.05c-1.82-0.03-2.51,0.39-2.46,2.36
		C189.97,373.44,189.88,378.79,189.88,384.13z M127.05,379.42c0-3.91-0.05-7.83,0.03-11.74c0.03-1.43-0.38-2.04-1.89-1.93
		c-1.59,0.11-3.21,0.16-4.79-0.01c-2.04-0.21-2.54,0.58-2.51,2.54c0.11,7.18,0.09,14.37,0.02,21.56c-0.03,2.83-0.73,5.52-3.65,6.71
		c-3.25,1.33-6.6,1.28-9.6-0.71c-2.33-1.54-2.47-4.19-2.51-6.67c-0.09-5.51,0.02-11.02-0.06-16.53c-0.03-2.2,1.01-5.11-0.45-6.44
		c-1.53-1.39-4.43-0.25-6.72-0.45c-1.49-0.13-1.91,0.47-1.9,1.92c0.06,7.51-0.05,15.01,0.05,22.52c0.1,6.83,3.72,11.17,10.33,12.84
		c3.55,0.9,7.17,0.85,10.71,0.47c8.62-0.91,12.91-5.88,12.93-14.51C127.06,385.81,127.05,382.62,127.05,379.42z M270.29,402.68
		c1.12,0,2.24-0.04,3.35,0.01c1.37,0.06,1.66-0.38,1.12-1.69c-3.87-9.44-7.66-18.91-11.53-28.34c-0.93-2.27-1.11-5.49-3.06-6.51
		c-2.02-1.06-4.99-0.2-7.52-0.41c-1.88-0.16-2.66,0.68-3.29,2.29c-1.89,4.91-3.9,9.77-5.89,14.64c-2.49,6.13-5.01,12.24-7.49,18.37
		c-0.24,0.59-1.12,1.61,0.51,1.62c2.63,0.02,5.48,0.55,7.82-0.28c1.75-0.62,1.64-3.58,2.53-5.42c0.07-0.14,0.15-0.29,0.18-0.44
		c0.27-1.24,1.05-1.56,2.26-1.53c3.43,0.07,6.88,0.21,10.3-0.04c2.53-0.18,3.69,0.68,4.42,3.08
		C265.44,402.72,265.57,402.68,270.29,402.68z M303.07,364.76c-1.73-0.16-4.54,0.31-7.23,1.47c-7.36,3.18-10.67,9.14-10.98,16.8
		c-0.3,7.29,1.61,13.76,8.32,17.9c4.6,2.84,9.71,3.21,14.8,2.55c6.55-0.86,11.34-4.38,13.8-10.73c0.7-1.8,0.46-2.72-1.74-2.56
		c-1.67,0.12-3.35,0.07-5.03,0.01c-1.11-0.04-1.69,0.34-2.1,1.46c-1.39,3.81-4.3,5.65-8.28,5.69c-4.1,0.04-7.38-1.67-9.02-5.51
		c-2.2-5.15-2.07-10.47,0.24-15.55c1.59-3.48,4.63-5.2,8.49-5.19c3.7,0.01,6.83,1.32,8.35,4.87c0.7,1.63,1.63,1.91,3.1,1.8
		c0.79-0.06,1.6,0.05,2.39-0.02c1.39-0.13,3.51,0.7,4.02-0.43c0.68-1.52-0.59-3.3-1.42-4.84c-0.08-0.14-0.19-0.25-0.28-0.39
		C316.62,366.28,310.76,364.83,303.07,364.76z M50.87,384.07c0,3.99,0,7.98,0,11.97c0,6.81,0,6.76,6.96,6.68
		c1.56-0.02,2.11-0.44,2.07-2.03c-0.09-3.83,0.08-7.66-0.07-11.49c-0.08-1.97,0.63-2.43,2.46-2.37c3.91,0.12,7.82,0.09,11.73,0.02
		c4.74-0.08,4.08,1.03,4.21-4.37c0.04-1.52-0.55-1.9-1.96-1.87c-3.35,0.08-6.7,0.02-10.06,0.02c-6.5,0-6.43,0-6.38-6.55
		c0.01-1.75,0.64-2.13,2.24-2.11c5.03,0.08,10.06,0.07,15.09,0.02c4.39-0.04,3.75,0.75,3.88-3.98c0.04-1.53-0.22-2.29-2.05-2.28
		c-8.7,0.09-17.4,0.07-26.1,0.01c-1.58-0.01-2.06,0.48-2.04,2.04C50.92,373.21,50.87,378.64,50.87,384.07z M334.57,383.97
		c0,5.58,0.03,11.17-0.02,16.75c-0.01,1.38,0.3,2.08,1.85,1.98c1.67-0.11,3.35-0.11,5.02,0c1.52,0.1,1.88-0.54,1.87-1.95
		c-0.04-11.01-0.04-22.01,0-33.02c0.01-1.38-0.3-2.08-1.85-1.98c-1.67,0.11-3.35,0.11-5.02,0c-1.52-0.1-1.89,0.54-1.87,1.95
		C334.6,373.13,334.57,378.55,334.57,383.97z M386.73,354.28c-3.29,0-5.83,0.01-8.36-0.01c-0.61,0-1.11,0.18-1.46,0.66
		c-1.34,1.88-2.68,3.77-3.99,5.67c-0.29,0.42-0.75,1.25,0.15,1.27c1.94,0.02,4.1,0.84,5.79-0.55
		C381.4,359.27,383.74,356.98,386.73,354.28z"/>
	<path class="st1" d="M297.21,71.05c-0.01,0.88-0.03,1.76-0.03,2.63c0,70.19-0.02,140.39,0.06,210.58c0,2.44-0.8,3.42-3.04,4.21
		c-29.4,10.35-58.76,20.8-88.12,31.23c-3.33,1.18-3.33,1.2-3.33-2.41c0-32.1,0.31-64.21-0.07-96.31
		c-0.6-49.98,0.01-99.96-0.37-149.93C233.94,71.05,265.58,71.05,297.21,71.05z M209.46,194.45c0.02,0,0.05,0,0.07,0
		c0,37.78,0,75.56,0,113.33c0,3.16,0.01,3.18,2.9,2.15c25.1-8.89,50.19-17.8,75.3-26.65c1.79-0.63,2.37-1.55,2.37-3.48
		c-0.06-66.29-0.06-132.58,0-198.88c0-2.26-0.67-2.75-2.81-2.74c-25,0.07-50.01,0.08-75.01-0.01c-2.36-0.01-2.88,0.66-2.87,2.93
		C209.48,118.89,209.46,156.67,209.46,194.45z"/>
	<path class="st1" d="M190.77,203.07c0,26.99-0.03,53.98,0.06,80.97c0.01,2.09-0.75,2.93-2.55,3.58
		c-28.71,10.39-57.39,20.82-86.09,31.23c-1.83,0.66-4,2.51-5.46,1.44c-1.24-0.91-0.36-3.6-0.37-5.5
		c-0.04-11.02,0.11-22.04-0.04-33.06c-0.74-53.01-0.19-106.03-0.38-159.04c-0.01-3.28,0-3.28,3.15-3.28c29.47,0,58.95,0,88.42,0
		c3.27,0,3.27,0,3.27,3.16C190.77,149.4,190.77,176.24,190.77,203.07z M103.05,218.33c0.02,0,0.05,0,0.07,0c0,29.86,0,59.72,0,89.58
		c0,3.12,0.12,3.19,3.03,2.13c25-9.13,50-18.28,75.02-27.34c1.87-0.68,2.52-1.51,2.52-3.54c-0.06-50.06-0.06-100.12-0.01-150.19
		c0-2.11-0.43-2.85-2.73-2.84c-25.08,0.09-50.15,0.09-75.23,0c-2.31-0.01-2.72,0.75-2.72,2.85
		C103.07,158.77,103.05,188.55,103.05,218.33z"/>
	<path class="st1" d="M403.63,203.27c0,26.84-0.03,53.67,0.05,80.51c0.01,2.16-0.54,3.16-2.67,3.93
		c-29.84,10.78-59.64,21.67-89.45,32.53c-2.29,0.83-2.35,0.8-2.35-1.99c-0.01-42.09,0.24-84.18-0.14-126.27
		c-0.21-23.23-0.03-46.46-0.31-69.69c-0.03-2.29,0.58-2.93,2.9-2.93c29.72,0.08,59.43,0.08,89.15,0c2.34-0.01,2.89,0.63,2.88,2.92
		C403.6,149.27,403.63,176.27,403.63,203.27z M315.91,205.23c0.01,0,0.02,0,0.04,0c0,1.6,0,3.19,0,4.79
		c0.02,32.65-0.12,65.31,0.36,97.96c0.04,3.03,0.05,3.03,2.88,2c24.93-9.11,49.87-18.22,74.83-27.26c1.85-0.67,2.55-1.48,2.55-3.54
		c-0.07-50.08-0.07-100.16-0.01-150.23c0-2.18-0.55-2.81-2.78-2.81c-25,0.08-50.01,0.08-75.01,0c-2.3-0.01-2.92,0.57-2.91,2.89
		C315.94,154.43,315.91,179.83,315.91,205.23z"/>
	<path class="st1" d="M149.62,377.71c0,7.32-0.09,14.63,0.05,21.95c0.05,2.32-0.41,3.2-2.97,3.09c-5.26-0.22-5.27-0.06-5.27-5.27
		c0-9.82,0.04-19.63-0.04-29.45c-0.01-1.77,0.53-2.07,2.25-2.35c5.29-0.86,8.42,1.22,11.01,5.82c3.67,6.51,8.06,12.61,12.16,18.91
		c0.87-0.47,0.48-1.18,0.48-1.72c0.03-6.86,0.07-13.73-0.01-20.59c-0.02-1.67,0.27-2.39,2.19-2.38c6.03,0.04,6.03-0.05,6.03,5.94
		c0,9.58-0.04,19.15,0.04,28.73c0.01,1.75-0.41,2.33-2.25,2.33c-6.72-0.01-6.64,0.01-10.26-5.65c-4.2-6.57-8.56-13.03-12.85-19.55
		C149.99,377.59,149.8,377.65,149.62,377.71z"/>
	<path class="st1" d="M435.26,390.24c0-7.34,0.07-14.68-0.05-22.01c-0.03-2.03,0.59-2.54,2.55-2.5c5.68,0.1,5.68,0.01,5.68,5.81
		c0,9.5-0.06,18.99,0.05,28.49c0.02,2.04-0.42,2.75-2.61,2.71c-6.45-0.13-6.37-0.08-9.84-5.55c-4.02-6.32-8.2-12.55-12.31-18.81
		c-0.21-0.32-0.39-0.7-1.16-0.72c0,0.74,0,1.49,0,2.24c0,6.94-0.03,13.89,0.02,20.83c0.01,1.38-0.31,1.95-1.85,1.99
		c-6.36,0.18-6.36,0.23-6.36-6.06c0-9.5,0.05-18.99-0.04-28.49c-0.02-1.84,0.5-2.24,2.36-2.48c5.1-0.66,8.32,1.05,10.84,5.71
		c3.17,5.87,7.18,11.29,10.83,16.91c0.47,0.71,0.97,1.4,1.46,2.1C434.97,390.35,435.12,390.3,435.26,390.24z"/>
	<path class="st1" d="M396.95,384.25c0.31,6.98-2.13,12.7-8.09,16.54c-7.06,4.55-23.92,4.96-29.78-5.93
		c-4.71-8.77-3.82-25.41,10.4-29.21c5.65-1.51,11.41-1.46,16.9,0.72C392.33,368.73,397.47,374.77,396.95,384.25z M388.26,384.34
		c0.07-1.85-0.33-3.64-0.81-5.41c-2.55-9.37-14.18-9.7-18.62-4.58c-3.84,4.43-4.05,9.48-2.7,14.81c1.49,5.88,7.12,9.3,13.02,7.99
		C385.02,395.86,388.23,391.34,388.26,384.34z"/>
	<path class="st1" d="M189.88,384.13c0-5.34,0.09-10.69-0.05-16.03c-0.05-1.97,0.64-2.4,2.46-2.36c5.82,0.1,11.65,0.01,17.47,0.05
		c8.46,0.06,14.38,5.39,15.59,13.82c1,6.96-0.13,13.35-5.03,18.65c-2.72,2.95-6.31,4.32-10.28,4.39
		c-6.06,0.11-12.13-0.02-18.19,0.06c-1.61,0.02-2.03-0.54-2.01-2.07C189.92,395.14,189.88,389.63,189.88,384.13z M198.51,384.05
		c0,3.51,0.06,7.02-0.03,10.52c-0.04,1.48,0.47,1.97,1.92,1.9c2.31-0.1,4.63,0.05,6.93-0.08c3.75-0.21,6.44-2.06,7.94-5.55
		c1.25-2.92,1.62-5.99,1.34-9.12c-0.54-6.13-2.71-8.97-7.74-9.56c-2.99-0.35-6.05-0.1-9.08-0.16c-1.33-0.02-1.3,0.85-1.3,1.76
		C198.51,377.19,198.51,380.62,198.51,384.05z"/>
	<path class="st1" d="M127.05,379.42c0,3.19,0.01,6.39,0,9.58c-0.02,8.62-4.31,13.59-12.93,14.51c-3.54,0.38-7.16,0.43-10.71-0.47
		c-6.61-1.67-10.24-6.02-10.33-12.84c-0.11-7.5,0.01-15.01-0.05-22.52c-0.01-1.44,0.42-2.05,1.9-1.92c2.29,0.2,5.18-0.94,6.72,0.45
		c1.47,1.33,0.42,4.23,0.45,6.44c0.08,5.51-0.03,11.02,0.06,16.53c0.04,2.47,0.18,5.12,2.51,6.67c3,1.99,6.35,2.04,9.6,0.71
		c2.92-1.19,3.63-3.89,3.65-6.71c0.07-7.19,0.09-14.37-0.02-21.56c-0.03-1.96,0.46-2.75,2.51-2.54c1.58,0.17,3.2,0.12,4.79,0.01
		c1.51-0.1,1.91,0.5,1.89,1.93C127,371.6,127.05,375.51,127.05,379.42z"/>
	<path class="st1" d="M270.29,402.68c-4.72,0-4.85,0.04-6.27-4.65c-0.73-2.41-1.89-3.27-4.42-3.08c-3.42,0.25-6.86,0.11-10.3,0.04
		c-1.22-0.03-2,0.29-2.26,1.53c-0.03,0.15-0.11,0.3-0.18,0.44c-0.9,1.84-0.79,4.81-2.53,5.42c-2.35,0.83-5.19,0.29-7.82,0.28
		c-1.63-0.01-0.75-1.03-0.51-1.62c2.47-6.13,4.99-12.25,7.49-18.37c1.98-4.87,3.99-9.73,5.89-14.64c0.62-1.61,1.41-2.45,3.29-2.29
		c2.53,0.21,5.51-0.65,7.52,0.41c1.95,1.02,2.13,4.25,3.06,6.51c3.87,9.44,7.66,18.91,11.53,28.34c0.54,1.31,0.25,1.75-1.12,1.69
		C272.53,402.64,271.41,402.68,270.29,402.68z M255.64,375.19c-0.18-0.03-0.36-0.07-0.54-0.1c-1.53,4.07-3.06,8.15-4.61,12.22
		c-0.39,1.03-0.11,1.48,1.01,1.47c2.47-0.02,4.93-0.03,7.4,0.01c1.18,0.02,1.59-0.34,1.13-1.56
		C258.53,383.23,257.1,379.2,255.64,375.19z"/>
	<path class="st1" d="M303.07,364.76c7.69,0.08,13.54,1.52,17.46,7.33c0.09,0.13,0.21,0.25,0.28,0.39c0.83,1.54,2.09,3.33,1.42,4.84
		c-0.51,1.13-2.63,0.3-4.02,0.43c-0.79,0.07-1.6-0.04-2.39,0.02c-1.47,0.11-2.4-0.17-3.1-1.8c-1.53-3.55-4.65-4.86-8.35-4.87
		c-3.86-0.01-6.9,1.71-8.49,5.19c-2.31,5.07-2.44,10.39-0.24,15.55c1.64,3.84,4.91,5.55,9.02,5.51c3.98-0.04,6.89-1.87,8.28-5.69
		c0.41-1.11,0.98-1.49,2.1-1.46c1.68,0.06,3.36,0.11,5.03-0.01c2.2-0.16,2.44,0.76,1.74,2.56c-2.46,6.35-7.26,9.87-13.8,10.73
		c-5.09,0.67-10.2,0.29-14.8-2.55c-6.71-4.15-8.62-10.62-8.32-17.9c0.31-7.66,3.62-13.62,10.98-16.8
		C298.53,365.07,301.34,364.6,303.07,364.76z"/>
	<path class="st1" d="M50.87,384.07c0-5.43,0.05-10.85-0.03-16.28c-0.02-1.56,0.46-2.06,2.04-2.04c8.7,0.07,17.4,0.08,26.1-0.01
		c1.82-0.02,2.09,0.74,2.05,2.28c-0.13,4.73,0.51,3.94-3.88,3.98c-5.03,0.05-10.06,0.06-15.09-0.02c-1.6-0.03-2.23,0.35-2.24,2.11
		c-0.05,6.55-0.11,6.55,6.38,6.55c3.35,0,6.71,0.05,10.06-0.02c1.41-0.03,2,0.35,1.96,1.87c-0.13,5.4,0.53,4.29-4.21,4.37
		c-3.91,0.07-7.82,0.1-11.73-0.02c-1.83-0.06-2.54,0.41-2.46,2.37c0.15,3.82-0.02,7.66,0.07,11.49c0.04,1.59-0.51,2.01-2.07,2.03
		c-6.96,0.08-6.96,0.13-6.96-6.68C50.87,392.05,50.87,388.06,50.87,384.07z"/>
	<path class="st2" d="M334.57,383.97c0-5.42,0.04-10.85-0.02-16.27c-0.02-1.41,0.36-2.05,1.87-1.95c1.67,0.11,3.35,0.11,5.02,0
		c1.55-0.1,1.85,0.6,1.85,1.98c-0.04,11.01-0.04,22.01,0,33.02c0.01,1.41-0.36,2.05-1.87,1.95c-1.67-0.11-3.35-0.11-5.02,0
		c-1.55,0.1-1.86-0.6-1.85-1.98C334.6,395.14,334.57,389.56,334.57,383.97z"/>
	<path class="st1" d="M386.73,354.28c-2.99,2.71-5.34,4.99-7.86,7.05c-1.7,1.38-3.85,0.57-5.79,0.55c-0.9-0.01-0.44-0.84-0.15-1.27
		c1.31-1.91,2.65-3.79,3.99-5.67c0.35-0.49,0.85-0.67,1.46-0.66C380.91,354.28,383.44,354.28,386.73,354.28z"/>
	<path class="st0" d="M209.46,194.45c0-37.78,0.02-75.56-0.05-113.33c0-2.27,0.52-2.94,2.87-2.93c25,0.09,50.01,0.08,75.01,0.01
		c2.14-0.01,2.81,0.48,2.81,2.74c-0.06,66.29-0.06,132.58,0,198.88c0,1.93-0.58,2.85-2.37,3.48c-25.11,8.85-50.2,17.76-75.3,26.65
		c-2.9,1.03-2.9,1.01-2.9-2.15c0-37.78,0-75.56,0-113.33C209.51,194.45,209.49,194.45,209.46,194.45z M274.24,244.53
		c1.68,0,3.35,0,5.03,0c2.67,0,2.7-0.02,1.8-2.51c-4.13-11.47-8.27-22.93-12.41-34.4c-3.05-8.47-6.13-16.93-9.12-25.42
		c-0.6-1.7-1.34-2.56-3.37-2.43c-3.58,0.23-7.19,0.18-10.77,0.02c-1.96-0.09-2.76,0.65-3.4,2.44c-3.68,10.36-7.5,20.67-11.25,31.01
		c-3.54,9.73-7.03,19.48-10.6,29.21c-0.61,1.65-0.34,2.19,1.52,2.13c3.51-0.13,7.03-0.09,10.54-0.01c1.33,0.03,2-0.4,2.39-1.72
		c0.97-3.2,2.14-6.34,3.14-9.54c0.39-1.26,1.01-1.75,2.37-1.74c6.95,0.07,13.89,0.06,20.84,0.01c1.26-0.01,1.87,0.43,2.22,1.61
		c0.84,2.82,1.93,5.58,2.63,8.44c0.54,2.2,1.47,3.31,3.89,2.95C271.18,244.35,272.73,244.53,274.24,244.53z"/>
	<path class="st0" d="M103.05,218.33c0-29.78,0.02-59.56-0.04-89.35c0-2.09,0.41-2.86,2.72-2.85c25.08,0.09,50.15,0.09,75.23,0
		c2.3-0.01,2.73,0.73,2.73,2.84c-0.05,50.06-0.06,100.12,0.01,150.19c0,2.03-0.65,2.87-2.52,3.54
		c-25.03,9.06-50.02,18.21-75.02,27.34c-2.91,1.06-3.03,0.99-3.03-2.13c0-29.86,0-59.72,0-89.58
		C103.1,218.33,103.08,218.33,103.05,218.33z M118.39,212.12c0,10.06,0.02,20.11-0.03,30.17c-0.01,1.53,0.23,2.29,2.04,2.28
		c10.54-0.09,21.08,0.11,31.61-0.12c6.1-0.14,11.7-1.81,16.12-6.59c7.35-7.95,6.28-23.13-3.58-27.06c-1.59-0.64-0.95-1.25,0.1-1.84
		c8.09-4.57,7.28-17.98,2.17-23.25c-4.15-4.28-9.32-5.72-14.93-5.81c-10.37-0.16-20.75,0-31.13-0.09c-1.89-0.02-2.43,0.51-2.42,2.4
		C118.44,192.17,118.39,202.15,118.39,212.12z"/>
	<path class="st0" d="M315.91,205.23c0-25.4,0.03-50.8-0.05-76.19c-0.01-2.32,0.61-2.9,2.91-2.89c25,0.09,50.01,0.08,75.01,0
		c2.23-0.01,2.78,0.63,2.78,2.81c-0.06,50.08-0.06,100.16,0.01,150.23c0,2.06-0.7,2.87-2.55,3.54
		c-24.96,9.04-49.89,18.15-74.83,27.26c-2.83,1.03-2.84,1.03-2.88-2c-0.48-32.65-0.34-65.31-0.36-97.96c0-1.6,0-3.19,0-4.79
		C315.93,205.23,315.92,205.23,315.91,205.23z M335,212.14c0,9.98,0.04,19.96-0.03,29.94c-0.01,1.78,0.33,2.6,2.34,2.49
		c3.03-0.17,6.07-0.14,9.1-0.01c1.73,0.07,2.14-0.57,2.12-2.2c-0.08-7.35,0.04-14.69-0.08-22.04c-0.03-2.05,0.42-2.74,2.61-2.7
		c7.9,0.14,15.81,0,23.72,0.1c1.91,0.02,2.76-0.39,2.6-2.48c-0.18-2.22-0.16-4.48,0-6.7c0.14-1.93-0.56-2.42-2.43-2.4
		c-8.14,0.09-16.29,0-24.44,0.07c-1.56,0.01-2.09-0.45-2.04-2.03c0.1-3.43,0.18-6.87-0.02-10.3c-0.13-2.21,0.66-2.63,2.7-2.61
		c9.42,0.11,18.85,0.01,28.27,0.08c1.63,0.01,2.29-0.39,2.19-2.12c-0.14-2.39-0.15-4.8,0-7.18c0.12-1.83-0.53-2.27-2.3-2.27
		c-13.98,0.07-27.95,0.07-41.93,0c-1.88-0.01-2.44,0.5-2.43,2.41C335.05,192.18,335,202.16,335,212.14z"/>
	<path class="st3" d="M388.25,384.34c-0.02,7-3.24,11.52-9.1,12.82c-5.91,1.3-11.53-2.12-13.02-7.99
		c-1.35-5.33-1.14-10.38,2.7-14.81c4.43-5.12,16.07-4.79,18.62,4.58C387.93,380.7,388.32,382.49,388.25,384.34z"/>
	<path class="st3" d="M198.51,384.05c0-3.43,0-6.85,0-10.28c0-0.92-0.03-1.79,1.3-1.76c3.03,0.06,6.09-0.19,9.08,0.16
		c5.03,0.59,7.2,3.43,7.74,9.56c0.28,3.13-0.09,6.2-1.34,9.12c-1.5,3.49-4.18,5.34-7.94,5.55c-2.31,0.13-4.63-0.02-6.93,0.08
		c-1.45,0.07-1.96-0.43-1.92-1.9C198.57,391.06,198.51,387.55,198.51,384.05z"/>
	<path class="st3" d="M255.64,375.19c1.46,4.01,2.89,8.04,4.39,12.04c0.45,1.22,0.05,1.58-1.13,1.56c-2.46-0.03-4.93-0.03-7.4-0.01
		c-1.12,0.01-1.4-0.44-1.01-1.47c1.55-4.07,3.07-8.15,4.61-12.22C255.28,375.12,255.46,375.16,255.64,375.19z"/>
	<path class="st1" d="M274.24,244.53c-1.52,0-3.06-0.18-4.55,0.04c-2.43,0.35-3.35-0.75-3.89-2.95c-0.7-2.85-1.79-5.61-2.63-8.44
		c-0.35-1.18-0.96-1.62-2.22-1.61c-6.95,0.05-13.89,0.06-20.84-0.01c-1.37-0.01-1.98,0.47-2.37,1.74c-0.99,3.2-2.17,6.33-3.14,9.54
		c-0.4,1.32-1.06,1.75-2.39,1.72c-3.51-0.07-7.03-0.12-10.54,0.01c-1.86,0.07-2.13-0.47-1.52-2.13c3.57-9.72,7.06-19.47,10.6-29.21
		c3.76-10.33,7.58-20.64,11.25-31.01c0.64-1.79,1.44-2.53,3.4-2.44c3.59,0.16,7.19,0.21,10.77-0.02c2.04-0.13,2.77,0.73,3.37,2.43
		c2.99,8.49,6.07,16.95,9.12,25.42c4.13,11.47,8.28,22.93,12.41,34.4c0.9,2.49,0.87,2.51-1.8,2.51
		C277.6,244.53,275.92,244.53,274.24,244.53z M250.92,195.55c-0.17-0.02-0.34-0.03-0.51-0.05c-2.55,7.62-5.1,15.24-7.66,22.85
		c-0.42,1.24-0.05,1.76,1.29,1.75c4.47-0.04,8.94-0.03,13.42,0c1.12,0.01,1.36-0.34,1.01-1.42
		C255.93,210.98,253.43,203.26,250.92,195.55z"/>
	<path class="st1" d="M118.39,212.12c0-9.98,0.05-19.95-0.04-29.93c-0.02-1.9,0.53-2.42,2.42-2.4c10.38,0.09,20.76-0.07,31.13,0.09
		c5.61,0.09,10.78,1.53,14.93,5.81c5.12,5.27,5.93,18.68-2.17,23.25c-1.05,0.59-1.7,1.21-0.1,1.84c9.86,3.93,10.93,19.11,3.58,27.06
		c-4.42,4.78-10.02,6.46-16.12,6.59c-10.53,0.23-21.07,0.04-31.61,0.12c-1.82,0.01-2.05-0.75-2.04-2.28
		C118.41,232.23,118.39,222.18,118.39,212.12z M142.46,216.73c-3.4,0-6.19,0.02-8.98-0.01c-0.99-0.01-1.69,0.13-1.68,1.39
		c0.04,4.54,0.02,9.09,0.01,13.63c0,0.91,0.4,1.3,1.3,1.27c6.36-0.21,12.75,0.56,19.08-0.49c4.19-0.69,6.42-3.39,6.52-7.56
		c0.1-4.42-1.74-6.72-6.14-7.76C149.02,216.38,145.42,216.92,142.46,216.73z M141.92,205.23c3.11-0.17,6.8,0.41,10.39-0.65
		c3.84-1.13,5.3-3.33,4.95-7.54c-0.25-3-2.21-4.71-5.8-5.25c-6.03-0.9-12.09-0.26-18.13-0.48c-1.37-0.05-1.54,0.68-1.53,1.79
		c0.03,3.43,0.08,6.85-0.02,10.28c-0.04,1.52,0.54,1.92,1.96,1.87C136.28,205.17,138.84,205.23,141.92,205.23z"/>
	<path class="st2" d="M335,212.14c0-9.98,0.05-19.96-0.04-29.94c-0.02-1.9,0.54-2.42,2.43-2.41c13.98,0.08,27.95,0.07,41.93,0
		c1.77-0.01,2.42,0.44,2.3,2.27c-0.15,2.39-0.14,4.79,0,7.18c0.1,1.73-0.56,2.14-2.19,2.12c-9.42-0.07-18.85,0.03-28.27-0.08
		c-2.04-0.02-2.83,0.4-2.7,2.61c0.2,3.42,0.12,6.87,0.02,10.3c-0.05,1.58,0.48,2.04,2.04,2.03c8.15-0.07,16.29,0.02,24.44-0.07
		c1.87-0.02,2.57,0.47,2.43,2.4c-0.16,2.22-0.17,4.48,0,6.7c0.17,2.09-0.69,2.5-2.6,2.48c-7.91-0.1-15.81,0.05-23.72-0.1
		c-2.19-0.04-2.65,0.65-2.61,2.7c0.12,7.34,0,14.69,0.08,22.04c0.02,1.63-0.39,2.27-2.12,2.2c-3.03-0.13-6.08-0.16-9.1,0.01
		c-2.01,0.11-2.36-0.71-2.34-2.49C335.04,232.1,335,222.12,335,212.14z"/>
	<path class="st3" d="M250.92,195.55c2.51,7.71,5.01,15.43,7.55,23.13c0.35,1.07,0.11,1.42-1.01,1.42c-4.47-0.03-8.94-0.04-13.42,0
		c-1.35,0.01-1.71-0.51-1.29-1.75c2.56-7.61,5.11-15.23,7.66-22.85C250.58,195.52,250.75,195.53,250.92,195.55z"/>
	<path class="st0" d="M142.46,216.73c2.96,0.18,6.56-0.36,10.11,0.48c4.41,1.04,6.24,3.34,6.14,7.76c-0.1,4.17-2.33,6.87-6.52,7.56
		c-6.33,1.05-12.72,0.27-19.08,0.49c-0.89,0.03-1.3-0.37-1.3-1.27c0.01-4.54,0.03-9.09-0.01-13.63c-0.01-1.26,0.69-1.4,1.68-1.39
		C136.27,216.75,139.06,216.73,142.46,216.73z"/>
	<path class="st0" d="M141.92,205.23c-3.08,0-5.63-0.06-8.18,0.02c-1.41,0.05-2-0.36-1.96-1.87c0.09-3.42,0.05-6.85,0.02-10.28
		c-0.01-1.1,0.16-1.84,1.53-1.79c6.04,0.22,12.1-0.42,18.13,0.48c3.59,0.53,5.55,2.25,5.8,5.25c0.35,4.2-1.11,6.41-4.95,7.54
		C148.71,205.64,145.03,205.06,141.92,205.23z"/>
</g>
</svg>
