<svg xmlns="http://www.w3.org/2000/svg" version="1.1" xmlns:xlink="http://www.w3.org/1999/xlink" xmlns:svgjs="http://svgjs.com/svgjs" width="1920" height="500" preserveAspectRatio="none" viewBox="0 0 1920 500"><g mask="url(&quot;#SvgjsMask1027&quot;)" fill="none"><rect width="1920" height="500" x="0" y="0" fill="rgba(21, 29, 37, 1)"></rect><path d="M63 500L563 0L806 0L306 500z" fill="url(#SvgjsLinearGradient1028)"></path><path d="M368.8 500L868.8 0L1300.8 0L800.8 500z" fill="url(#SvgjsLinearGradient1028)"></path><path d="M640.6 500L1140.6 0L1475.1 0L975.1 500z" fill="url(#SvgjsLinearGradient1028)"></path><path d="M979.4000000000001 500L1479.4 0L1587.4 0L1087.4 500z" fill="url(#SvgjsLinearGradient1028)"></path><path d="M1893 500L1393 0L1054 0L1554 500z" fill="url(#SvgjsLinearGradient1029)"></path><path d="M1569.2 500L1069.2 0L877.2 0L1377.2 500z" fill="url(#SvgjsLinearGradient1029)"></path><path d="M1283.4 500L783.4000000000001 0L723.4000000000001 0L1223.4 500z" fill="url(#SvgjsLinearGradient1029)"></path><path d="M956.5999999999999 500L456.5999999999999 0L8.099999999999909 0L508.0999999999999 500z" fill="url(#SvgjsLinearGradient1029)"></path><path d="M1440.3685099331317 500L1920 20.368509933131747L1920 500z" fill="url(#SvgjsLinearGradient1028)"></path><path d="M0 500L479.63149006686825 500L 0 20.368509933131747z" fill="url(#SvgjsLinearGradient1029)"></path></g><defs><mask id="SvgjsMask1027"><rect width="1920" height="500" fill="#ffffff"></rect></mask><linearGradient x1="0%" y1="100%" x2="100%" y2="0%" id="SvgjsLinearGradient1028"><stop stop-color="rgba(15, 70, 185, 0.2)" offset="0"></stop><stop stop-opacity="0" stop-color="rgba(15, 70, 185, 0.2)" offset="0.66"></stop></linearGradient><linearGradient x1="100%" y1="100%" x2="0%" y2="0%" id="SvgjsLinearGradient1029"><stop stop-color="rgba(15, 70, 185, 0.2)" offset="0"></stop><stop stop-opacity="0" stop-color="rgba(15, 70, 185, 0.2)" offset="0.66"></stop></linearGradient></defs></svg>